<?xml version="1.0" encoding="utf-8"?>
<!-- Generator: Adobe Illustrator 28.1.0, SVG Export Plug-In . SVG Version: 6.00 Build 0)  -->
<svg version="1.1" xmlns="http://www.w3.org/2000/svg" xmlns:xlink="http://www.w3.org/1999/xlink" x="0px" y="0px"
	 viewBox="0 0 563.3 142" style="enable-background:new 0 0 563.3 142;" xml:space="preserve">
<style type="text/css">
	.st0{fill:#36A9E1;}
	.st1{fill:none;stroke:#F39200;stroke-miterlimit:10;stroke-dasharray:283.4646,141.7323,56.6929,56.6929,56.6929;}
	.st2{opacity:0.47;fill:#36A9E1;}
	.st3{opacity:0.47;fill:none;stroke:#414142;stroke-miterlimit:10;}
	.st4{opacity:0.47;fill:#9ECFA3;}
	.st5{opacity:0.47;fill:none;stroke:#414142;stroke-width:0.6882;stroke-miterlimit:10;}
	.st6{fill:#414142;}
	.st7{fill:url(#SVGID_1_);}
	.st8{fill:url(#SVGID_00000015331324533729219860000010848697460806982296_);}
	.st9{fill:url(#SVGID_00000044144618614868668540000014270548144034084020_);}
	.st10{fill:url(#SVGID_00000027571176391418342020000011820568591139720359_);}
	.st11{fill:url(#SVGID_00000082325818058148348190000008262254302491654812_);}
	.st12{fill:url(#SVGID_00000098921900979584419210000011500430355663910821_);}
	.st13{fill:url(#SVGID_00000081624517060139506940000009718453769295584436_);}
	.st14{fill:#1D71B8;}
	.st15{fill:#FFFFFF;}
	.st16{fill:none;}
	.st17{fill:#E51E39;}
	.st18{fill-rule:evenodd;clip-rule:evenodd;fill:#FCFCFC;}
	.st19{fill-rule:evenodd;clip-rule:evenodd;fill:#FFFFFF;}
	.st20{fill-rule:evenodd;clip-rule:evenodd;fill:#1F1A3B;}
	
		.st21{clip-path:url(#SVGID_00000150078482235958734960000015862882448519344542_);fill:url(#SVGID_00000142171151139675373750000001741409284445855147_);}
	
		.st22{clip-path:url(#SVGID_00000091695149360757754590000002741069301921338504_);fill:url(#SVGID_00000139288505787400374600000015763135269510555292_);}
	.st23{fill:url(#SVGID_00000141413103441754847100000008380862983988542890_);}
	
		.st24{clip-path:url(#SVGID_00000130625515204219993150000012602075315075355071_);fill:url(#SVGID_00000144306297156491507690000009450712648905866942_);}
	
		.st25{clip-path:url(#SVGID_00000091722353390331989320000015809863576355859635_);fill:url(#SVGID_00000103228919865536773510000005021120628956511162_);}
	
		.st26{clip-path:url(#SVGID_00000015320986229201887470000011875196498402252206_);fill:url(#SVGID_00000092421050945084985030000003957214029447485057_);}
	
		.st27{clip-path:url(#SVGID_00000041270234078391736910000004416642868661878410_);fill:url(#SVGID_00000170243369421865908560000008429403660031342250_);}
	
		.st28{clip-path:url(#SVGID_00000181778111923216160550000002061678562131359919_);fill:url(#SVGID_00000000914133640492014260000017382371176427897017_);}
	.st29{fill-rule:evenodd;clip-rule:evenodd;fill:#1D1D1D;}
	.st30{fill-rule:evenodd;clip-rule:evenodd;fill:url(#SVGID_00000028305246802415639040000017705466247975225501_);}
	.st31{fill-rule:evenodd;clip-rule:evenodd;fill:#3251A0;}
	
		.st32{clip-path:url(#SVGID_00000080901239134076199260000000569999139534538676_);fill:url(#SVGID_00000036966014926731769740000006011899385740582334_);}
	
		.st33{clip-path:url(#SVGID_00000164515501602209132500000017978864127982328741_);fill:url(#SVGID_00000003793854720444426270000007818012095135188141_);}
	
		.st34{clip-path:url(#SVGID_00000086667816250628939400000005253434043642434459_);fill:url(#SVGID_00000090989656063542500510000006429387205408081306_);}
	
		.st35{clip-path:url(#SVGID_00000030478395522045715940000004342600433462611637_);fill:url(#SVGID_00000131349841579457379380000007968406185194075530_);}
	.st36{fill-rule:evenodd;clip-rule:evenodd;fill:#464999;}
	
		.st37{clip-path:url(#SVGID_00000159457747537366232820000003598920195126804148_);fill:url(#SVGID_00000009562642816922703020000010515549267527282329_);}
	
		.st38{clip-path:url(#SVGID_00000115509222898466401610000000098513463125571492_);fill:url(#SVGID_00000008120035510979996170000004460311730994290578_);}
	.st39{fill-rule:evenodd;clip-rule:evenodd;fill:#6CB22D;}
	
		.st40{clip-path:url(#SVGID_00000111184821972028287610000013246825598567346565_);fill:url(#SVGID_00000057862616761710662150000017970937978978327960_);}
	
		.st41{clip-path:url(#SVGID_00000014615723957032125980000009979536815326168247_);fill:url(#SVGID_00000065766148452139961100000005612993547479910028_);}
	
		.st42{clip-path:url(#SVGID_00000058575704581597313050000008680028280757561513_);fill:url(#SVGID_00000047041094389077850090000011257491181840119981_);}
	
		.st43{clip-path:url(#SVGID_00000148620390843173755760000009824016695085446793_);fill:url(#SVGID_00000107588401743034372740000011301680546517362098_);}
	
		.st44{clip-path:url(#SVGID_00000026846169601326261330000009635605634966422942_);fill:url(#SVGID_00000129901982865013919340000003014778013148233656_);}
	
		.st45{clip-path:url(#SVGID_00000024717678226981624840000005009194011049487246_);fill:url(#SVGID_00000142884870942188607810000006574669789178262973_);}
	
		.st46{clip-path:url(#SVGID_00000119840228195375485910000010940766803752366497_);fill:url(#SVGID_00000135649418116132612030000002362696931910974860_);}
	
		.st47{clip-path:url(#SVGID_00000088101225764419866490000002367350155385269907_);fill:url(#SVGID_00000019646731724454701750000003392351029775777724_);}
	.st48{fill:#E94E1B;stroke:#E94E1B;stroke-width:0.4751;}
	.st49{fill:#F39200;stroke:#F39200;stroke-width:0.3225;}
	.st50{fill:#E94E1B;}
	.st51{fill:#2975B9;}
	.st52{fill:#98D0DC;}
	.st53{fill:#FFEB93;}
	.st54{fill:none;stroke:#414142;stroke-width:0.738;stroke-miterlimit:10;}
	.st55{opacity:0.45;fill:#36A9E1;}
	.st56{fill:#599499;}
	.st57{fill:#F39688;}
	.st58{fill:#9ECFA3;}
	.st59{fill:#599499;stroke:#030405;stroke-width:2.9302;stroke-linecap:square;stroke-linejoin:round;stroke-miterlimit:10;}
	.st60{fill:#599499;stroke:#5C5C5B;stroke-width:2.9302;stroke-linecap:square;stroke-miterlimit:10;}
	.st61{fill:#599499;stroke:#030405;stroke-width:2.9302;stroke-linecap:square;stroke-miterlimit:10;}
	.st62{fill:#599499;stroke:#030405;stroke-width:2.9302;stroke-linecap:square;stroke-linejoin:round;}
	.st63{fill:#706F6F;}
	.st64{fill:#599499;stroke:#5C5C5B;stroke-width:2.9302;stroke-linecap:round;stroke-linejoin:round;stroke-miterlimit:10;}
	.st65{fill:none;stroke:#1F1F1F;stroke-width:1.1912;stroke-miterlimit:10;}
	.st66{opacity:0.52;}
	.st67{fill:none;stroke:#1F1F1F;stroke-width:1.4651;stroke-miterlimit:10;}
	.st68{fill:none;stroke:#1F1F1F;stroke-width:1.1655;stroke-miterlimit:10;}
	.st69{fill:#FFFFFF;stroke:#FFFFFF;stroke-width:4.921;stroke-miterlimit:10;}
	.st70{fill:#FFFFFF;stroke:#FFFFFF;stroke-width:3.8665;stroke-miterlimit:10;}
	.st71{fill:none;stroke:#1F1F1F;stroke-width:1.3186;stroke-miterlimit:10;}
	.st72{opacity:0.55;}
	.st73{fill:none;stroke:#1F1F1F;stroke-width:1.4689;stroke-miterlimit:10;}
	.st74{fill:#FFFFFF;stroke:#FFFFFF;stroke-width:5.2725;stroke-miterlimit:10;}
	.st75{fill:#FFFFFF;stroke:#FFFFFF;stroke-width:3.6373;stroke-miterlimit:10;}
	.st76{fill:#FFFFFF;stroke:#FFFFFF;stroke-width:4.218;stroke-miterlimit:10;}
	.st77{fill:none;stroke:#1F1F1F;stroke-width:1.3876;stroke-miterlimit:10;}
	.st78{fill:#FFFFFF;stroke:#FFFFFF;stroke-width:4.8223;stroke-miterlimit:10;}
	.st79{fill:#FFFFFF;stroke:#FFFFFF;stroke-width:5.2524;stroke-miterlimit:10;}
	.st80{fill:#FFFFFF;stroke:#FFFFFF;stroke-width:4.6566;stroke-miterlimit:10;}
	.st81{fill:#FFFFFF;stroke:#FFFFFF;stroke-width:4.3252;stroke-miterlimit:10;}
	.st82{fill:#FFFFFF;stroke:#FFFFFF;stroke-width:5.7569;stroke-miterlimit:10;}
	.st83{fill:#FFFFFF;stroke:#FFFFFF;stroke-width:5.4107;stroke-miterlimit:10;}
	.st84{fill:#2E3659;}
	.st85{fill:none;stroke:#F39688;stroke-width:2.8346;stroke-linecap:round;stroke-miterlimit:10;}
	.st86{fill:none;stroke:#F39200;stroke-width:2.8346;stroke-linecap:round;stroke-miterlimit:10;}
	.st87{fill:#F9B233;}
	.st88{opacity:0.47;fill:none;stroke:#414142;stroke-width:0.8559;stroke-miterlimit:10;}
	.st89{fill:none;stroke:#0F6DB4;stroke-miterlimit:10;}
	
		.st90{clip-path:url(#SVGID_00000050630573731989692630000001347858579609528197_);fill:url(#SVGID_00000137830077525397191050000016479109078300252853_);}
	
		.st91{clip-path:url(#SVGID_00000032650105744902151170000013794260914045990319_);fill:url(#SVGID_00000081615898816721103850000007073763169814296737_);}
	.st92{fill:#0F6DB4;}
	.st93{fill:#F39200;}
	.st94{fill:none;stroke:#414142;stroke-width:3.8408;stroke-miterlimit:10;}
	.st95{fill:none;stroke:#FFFFFF;stroke-width:1.2862;stroke-miterlimit:10;}
	.st96{fill:none;stroke:#414142;stroke-width:3.0859;stroke-miterlimit:10;}
	.st97{fill:none;stroke:#FFFFFF;stroke-width:1.1114;stroke-miterlimit:10;}
</style>
<g id="Layer_2">
</g>
<g id="Layer_1">
	<g>
		<path class="st92" d="M61.4,108.1h-0.8c-3.2,0-6-2.2-6.8-5.3l-3.5-14.1c-0.8-3.1-3.6-5.3-6.8-5.3H31.8c-3.2,0-6,2.2-6.8,5.3
			l-3.5,14.1c-0.8,3.1-3.6,5.3-6.8,5.3H14c-4.7,0-8-4.5-6.7-9l17-56.6C26.5,35.5,31,32,37.7,32c6.8,0,11.2,3.5,13.4,10.6l17,56.6
			C69.4,103.6,66.1,108.1,61.4,108.1z M37.7,73.6c4.5,0,7.9-4.3,6.8-8.7l-4.9-19.6c-0.3-1-0.9-1.5-1.9-1.5c-1,0-1.6,0.5-1.9,1.5
			l-4.9,19.6C29.8,69.3,33.2,73.6,37.7,73.6L37.7,73.6z"/>
		<path class="st92" d="M150.5,108.1L150.5,108.1c-3.9,0-7.1-3.2-7.1-7.1V46c0-1.3-0.4-2-1.3-2c-1.1,0-1.8,0.7-2.2,2l-10.1,38.6
			c-1.6,6.1-5.3,9.2-11.2,9.2c-5.7,0-9.4-3.1-11-9.2L97.5,46c-0.4-1.3-1.1-2-2.2-2c-0.9,0-1.3,0.7-1.3,2v55.1c0,3.9-3.2,7.1-7.1,7.1
			h-0.1c-3.9,0-7.1-3.2-7.1-7.1V45.8c0-4.3,1.3-7.6,3.9-10c2.4-2.2,5.5-3.3,9.3-3.3c4.1,0,7.1,0.6,9.3,1.9c2.7,1.6,4.6,4.5,5.6,8.6
			l9.9,38.1c0.2,0.7,0.5,1,1,1c0.5,0,0.9-0.3,1.1-1l9.8-38.1c1.1-4.2,2.9-7,5.6-8.6c2.1-1.3,5.2-1.9,9.3-1.9c3.8,0,6.8,1.1,9.2,3.3
			c2.6,2.4,3.9,5.7,3.9,10v55.3C157.5,105,154.4,108.1,150.5,108.1z"/>
		<path class="st92" d="M179.9,108.1L179.9,108.1c-4.1,0-7.4-3.3-7.4-7.4V39.9c0-4.1,3.3-7.4,7.4-7.4h0c4.1,0,7.4,3.3,7.4,7.4v60.8
			C187.3,104.8,184,108.1,179.9,108.1z"/>
		<path class="st92" d="M251.1,108.1h-7c-1.2,0-2.4-0.5-3.1-1.5c-2.1-2.6-4.8-6.9-8.1-12.8c-3.6-6.4-6.2-12.1-8-16.9
			c-0.6-1.6-2.1-2.6-3.8-2.6l0,0c-2.2,0-4.1,1.8-4.1,4.1V104c0,2.2-1.8,4.1-4.1,4.1h-6.6c-2.2,0-4.1-1.8-4.1-4.1V41.6
			c0-6,2.8-9.1,8.3-9.1h18.6c7.2,0,13.1,1.7,17.7,5c5.1,3.7,7.7,9,7.7,15.8c0,4.9-1.6,9.2-4.9,12.7c-2.6,2.8-5.9,4.9-10,6.3
			c-2.4,0.8-3.5,3.6-2.2,5.9c1.9,3.2,4.5,7.2,7.9,11.9c3.1,4.3,6,8.1,8.8,11.4C256.4,104.1,254.6,108.1,251.1,108.1z M240.5,53.8
			c0-4-1.6-6.9-4.9-8.9c-2.7-1.7-6-2.5-10.1-2.5h-7.2c-0.9,0-1.4,0.5-1.4,1.6v16.7c0,2.2,1.8,4.1,4.1,4.1h5.3c4,0,7.2-0.8,9.8-2.5
			C239.1,60.2,240.5,57.4,240.5,53.8z"/>
		<g>
			<path class="st93" d="M278.4,94.1l-2.9,13.6c-0.4,1.4-1.3,2.1-2.7,2.1c-2.2,0-4.2-1.3-6.1-3.9c-1.9-2.6-2.6-5.1-2.2-7.5L277,39.8
				c0.4-1.3,1.2-2,2.6-2c2.2,0,4.2,1.3,6.1,3.9c1.9,2.6,2.6,5.1,2.2,7.5l-3.3,16.4c4.4-8.9,9.4-15.8,15-20.6
				c5.6-4.8,11.3-7.2,17.2-7.2c5.5,0,9.6,2,12.4,5.9c2.7,3.9,3.5,8.6,2.4,14l-10.7,50c-0.4,1.4-1.3,2.1-2.9,2.1
				c-2.2,0-4.2-1.3-6-3.9c-1.8-2.6-2.5-5.1-2.1-7.5l9.4-44.6c0.6-3.1,0.4-5.5-0.7-7.4c-1.1-1.9-3.2-2.8-6.2-2.8
				c-5.7,0-12,4.6-18.9,13.9C286.7,66.8,281.6,79,278.4,94.1z"/>
			<path class="st93" d="M385.1,37.8c2.7,0,5.2,0.3,7.4,0.7c2.2,0.5,4.1,1.2,5.5,2.1c1.5,0.9,2.7,1.9,3.8,3.1
				c1.1,1.2,1.8,2.4,2.3,3.8c0.4,1.4,0.7,2.7,0.9,4.2c0.1,1.4,0,2.8-0.3,4.2c-0.9,4.1-3.1,7.8-6.6,11.1c-3.6,3.3-7.8,6.1-12.6,8.1
				c-4.9,2.1-10,3.7-15.3,4.9c-5.3,1.2-10.5,1.9-15.5,2c0.2,5.9,2.1,10.8,5.6,14.5c3.5,3.8,8,5.6,13.4,5.6c9.5,0,17-5.3,22.5-15.9
				c0.9-1.6,2.3-2.3,4-2.1c0.9,0.1,1.5,0.5,1.9,1.1c0.4,0.6,0.5,1.4,0.2,2.4c-2.3,6.3-6.5,11.6-12.4,15.8
				c-5.9,4.2-12.9,6.3-20.8,6.3c-9.3,0-16.5-3.5-21.8-10.4c-5.3-7-6.8-15.4-4.7-25.4c1.6-7.2,4.6-13.6,9-19.2
				c4.4-5.6,9.5-9.8,15.4-12.6C372.9,39.2,378.9,37.8,385.1,37.8z M354.8,78.5c9-0.4,17.1-2.6,24.1-6.4c7-3.9,11.3-9.3,12.8-16.2
				c0.6-3.2,0.2-6-1.2-8.5c-1.4-2.5-3.9-3.7-7.3-3.7c-5.1,0-10.5,2.8-16.2,8.5c-5.8,5.7-9.6,12.9-11.5,21.8
				C355.1,75.7,354.9,77.2,354.8,78.5z"/>
			<path class="st93" d="M418.8,43.2c-0.5,0-1-0.2-1.3-0.6c-0.4-0.4-0.5-0.9-0.4-1.4c0.1-0.5,0.4-1,0.9-1.5c0.6-0.4,1.1-0.7,1.6-0.7
				h7.4l4.8-22.8c0.4-1.4,1.3-2.1,2.7-2.1c2.2,0,4.2,1.3,6.1,3.9c1.9,2.6,2.6,5.1,2.2,7.5L440,39.1h24.2c0.5,0,0.9,0.2,1.2,0.7
				c0.3,0.4,0.3,0.9,0.2,1.5c-0.1,0.5-0.3,1-0.8,1.4c-0.5,0.4-1,0.6-1.5,0.6h-24.1l-10.5,48.9c-0.6,3.2-0.4,5.7,0.8,7.7
				s3.4,2.9,6.6,2.9c4.1,0,8.3-1.7,12.5-5.2c0.9-0.7,1.7-1.1,2.5-1.1c0.7,0,1.3,0.2,1.7,0.7c0.4,0.5,0.5,1.1,0.4,1.8
				c-0.1,0.8-1,1.9-2.6,3.3c-5.8,5.1-12.5,7.6-20,7.6c-6.1,0-10.4-1.7-12.8-5c-2.4-3.3-3-7.8-1.8-13.2l10.3-48.3H418.8z"/>
		</g>
		<g>
			<g>
				<path class="st94" d="M510,106.3c-4.1,9.1,0,19.8,9,23.9l13.2,6c9.1,4.1,19.8,0,23.9-9c4.1-9.1,0-19.8-9-23.9l-13.2-6
					C524.9,93.2,514.1,97.2,510,106.3z"/>
				<path class="st94" d="M544.2,109.8c5.5,2.5,7.9,8.9,5.4,14.4c-2.5,5.4-8.9,7.9-14.4,5.4l-13.2-6c-4.3-1.9-6.7-6.3-6.3-10.8
					l9.3,4.2c1.8,0.8,4,0,4.8-1.8c0.8-1.8,0-4-1.8-4.8l-9.3-4.2c3.1-3.2,8-4.3,12.3-2.4L544.2,109.8z"/>
			</g>
			<path class="st6" d="M453.3,98.9c6.6-8.4,18.4-20,28.7-15.1c2.8,1.3,5.2,3.6,7.1,6.2c0.7,0.9,1.2,1.8,1.8,3c1,2,1.5,4.4,2.2,6.6
				c0.5,1.5,0.9,3,1.6,4.4c0.8,1.7,2,2.9,3.3,4c2.8,2.3,5.9,2.2,9.1,1.2c1.8-0.6,1.1-4-0.8-3.4c-3,1-5.5,0.7-7.9-1.9
				c-1.8-2-2.5-5.2-3.3-7.9c-1-3.5-2.3-6.4-4.4-9.1c-5.1-6.7-12.7-9.5-20.1-7.1c-7,2.3-15.5,9.9-20.4,16.1
				C449,97.6,453.3,98.9,453.3,98.9z"/>
		</g>
		<rect x="3.2" y="2.7" class="st95" width="558.3" height="138.2"/>
	</g>
</g>
</svg>
