<svg xmlns="http://www.w3.org/2000/svg" width="33" height="33" viewBox="0 0 33 33"><defs><style>.a{fill:#fff;stroke:#d0d0d1;stroke-width:2px;}.b{fill:#767c91;}.c{stroke:none;}.d{fill:none;}</style></defs><g transform="translate(-1830 -535)"><g transform="translate(1830 535)"><g class="a"><circle class="c" cx="16.5" cy="16.5" r="16.5"/><circle class="d" cx="16.5" cy="16.5" r="15.5"/></g></g><g transform="translate(1843.029 543.898)"><path class="b" d="M7.35,8.82a1.335,1.335,0,0,1-1.029-.441L.441,2.5a1.421,1.421,0,0,1,0-2.058A1.421,1.421,0,0,1,2.5.441L7.35,5.292,12.2.441a1.421,1.421,0,0,1,2.058,0,1.421,1.421,0,0,1,0,2.058l-5.88,5.88A1.335,1.335,0,0,1,7.35,8.82Z" transform="translate(0 14.701) rotate(-90)"/></g></g></svg>